<?xml version="1.0" encoding="iso-8859-1"?>
<!-- Uploaded to: SVG Repo, www.svgrepo.com, Generator: SVG Repo Mixer Tools -->
<!DOCTYPE svg PUBLIC "-//W3C//DTD SVG 1.1//EN" "http://www.w3.org/Graphics/SVG/1.1/DTD/svg11.dtd">
<svg fill="#fff" height="800px" width="800px" version="1.1" id="Capa_1" xmlns="http://www.w3.org/2000/svg" xmlns:xlink="http://www.w3.org/1999/xlink" 
	 viewBox="0 0 297 297" xml:space="preserve">
<g>
	<path d="M254.73,202.621c-2.669,0-5.287,1.086-7.175,2.975c-1.898,1.887-2.975,4.506-2.975,7.175c0,2.681,1.076,5.288,2.975,7.176
		c1.888,1.898,4.506,2.974,7.175,2.974c2.67,0,5.288-1.075,7.177-2.974c1.888-1.888,2.974-4.506,2.974-7.176
		c0-2.669-1.086-5.288-2.974-7.175C260.019,203.707,257.4,202.621,254.73,202.621z"/>
	<path d="M112.616,202.621c-5.612,0-10.149,4.548-10.149,10.149c0,5.613,4.537,10.149,10.149,10.149
		c5.603,0,10.15-4.536,10.15-10.149C122.767,207.169,118.219,202.621,112.616,202.621z"/>
	<path d="M77.082,202.621c-5.603,0-10.149,4.548-10.149,10.149c0,5.613,4.547,10.149,10.149,10.149
		c5.613,0,10.149-4.536,10.149-10.149C87.231,207.169,82.695,202.621,77.082,202.621z"/>
	<path d="M219.197,202.621c-5.603,0-10.149,4.548-10.149,10.149c0,5.613,4.547,10.149,10.149,10.149
		c5.613,0,10.149-4.536,10.149-10.149C229.347,207.169,224.81,202.621,219.197,202.621z"/>
	<path d="M183.674,202.621c-5.613,0-10.149,4.548-10.149,10.149c0,5.613,4.536,10.149,10.149,10.149
		c5.602,0,10.149-4.536,10.149-10.149C193.823,207.169,189.275,202.621,183.674,202.621z"/>
	<path d="M148.141,202.621c-5.604,0-10.15,4.548-10.15,10.149c0,5.613,4.547,10.149,10.15,10.149
		c5.602,0,10.149-4.536,10.149-10.149C158.29,207.169,153.742,202.621,148.141,202.621z"/>
	<path d="M41.559,202.621c-2.669,0-5.288,1.086-7.175,2.975c-1.889,1.887-2.975,4.506-2.975,7.175c0,2.67,1.086,5.288,2.975,7.176
		c1.887,1.898,4.506,2.974,7.175,2.974c2.67,0,5.289-1.075,7.176-2.974c1.889-1.888,2.974-4.506,2.974-7.176
		c0-2.669-1.085-5.288-2.974-7.175C46.848,203.707,44.228,202.621,41.559,202.621z"/>
	<path d="M296.287,126.306c-2.033-43.274-41.072-65.321-55.515-71.636c-4.481-17.702-20.458-30.834-39.428-30.834
		c-22.433,0-40.683,18.361-40.683,40.93c0,2.407,0.219,4.763,0.617,7.058L7.34,116.16c-0.017,0.005-0.028,0.013-0.044,0.018
		C3.081,117.411,0,121.3,0,125.913v137.101c0,5.605,4.544,10.15,10.149,10.15h275.988c5.604,0,10.149-4.545,10.149-10.15
		C296.287,263.014,297.891,160.445,296.287,126.306z M20.299,136.062h255.688v35.605H20.299V136.062z M201.345,44.136
		c11.239,0,20.383,9.254,20.383,20.63s-9.143,20.631-20.383,20.631c-11.24,0-20.384-9.255-20.384-20.631
		S190.104,44.136,201.345,44.136z M169.747,90.509c7.464,9.256,18.854,15.187,31.598,15.187c18.184,0,33.618-12.066,38.812-28.658
		c3.538,1.97,7.569,4.512,11.618,7.682c11.295,8.844,18.728,19.251,22.198,31.045H82.06L169.747,90.509z M20.299,252.864v-60.898
		h255.688v60.898H20.299z"/>
</g>
</svg>