<?xml version="1.0" encoding="iso-8859-1"?>
<!-- Uploaded to: SVG Repo, www.svgrepo.com, Generator: SVG Repo Mixer Tools -->
<!DOCTYPE svg PUBLIC "-//W3C//DTD SVG 1.1//EN" "http://www.w3.org/Graphics/SVG/1.1/DTD/svg11.dtd">
<svg fill="#fff" height="800px" width="800px" version="1.1" id="Capa_1" xmlns="http://www.w3.org/2000/svg" xmlns:xlink="http://www.w3.org/1999/xlink" 
	 viewBox="0 0 378.744 378.744" xml:space="preserve">
<path d="M304.349,136.972c0-25.3-17.079-46.67-40.307-53.229l38.024-60.786c4.394-7.023,2.262-16.278-4.762-20.672
	c-7.024-4.394-16.28-2.261-20.672,4.762l-38.572,61.661c-11.712-15.213-30.047-24.694-50.219-24.694
	c-25.56,0-47.975,15.001-57.949,37.644c-0.062,0-0.125,0-0.187,0c-30.5,0-55.313,24.813-55.313,55.314
	c0,11.23,3.373,21.683,9.146,30.416c3.004,22.575,15.365,115.946,19.091,151.71c2.891,27.742,5.132,43.835,17.579,51.979
	c11.715,7.667,30.926,7.667,69.199,7.667c39.52,0,59.357,0,70.699-7.706c11.763-7.992,13.205-22.679,16.08-51.961
	c3.582-36.479,16.697-133.307,19.25-152.05C301.064,158.367,304.349,148.048,304.349,136.972z M249.036,111.657
	c13.958,0,25.313,11.356,25.313,25.314c0,1.964-0.232,3.874-0.658,5.711h-46.519l19.322-30.889
	C247.338,111.709,248.185,111.657,249.036,111.657z M129.706,111.657c1.89,0,3.786,0.214,5.625,0.634
	c1.134,0.26,2.302,0.391,3.472,0.391c7.58-0.001,14.849-5.688,16.549-12.947c3.55-15.144,16.91-25.721,32.49-25.721
	c14.842,0,27.801,9.736,31.984,23.845l-28.04,44.824H105.05c-0.425-1.837-0.658-3.747-0.658-5.711
	C104.392,123.014,115.748,111.657,129.706,111.657z"/>
</svg>