<?xml version="1.0" encoding="utf-8"?>
<svg viewBox="0 0 170 130" xmlns="http://www.w3.org/2000/svg">
  <g transform="matrix(0.1, 0, 0, -0.1, -30.683949, 165.411407)" fill="#000000" stroke="none">
    <path d="M 1381.857 1618.214 C 1343.579 1621.759 1274.353 1621.591 1208.514 1613.13 C 1139.163 1604.218 1075.378 1583.866 1060.482 1580.269 C 988.592 1561.296 809.352 1482.265 809.352 1482.265 C 809.352 1482.265 819.405 1460.328 821.853 1460.196 C 823.518 1460.106 931.769 1505.656 1062.066 1538.915 C 1158.486 1563.527 1267.422 1579.191 1351.859 1576.214 C 1429.75 1573.468 1481.552 1565.338 1527.712 1553.087 C 1571.642 1541.427 1622.904 1528.448 1670.204 1499.68 C 1754.204 1449.679 1796.736 1405.11 1838.736 1339.112 C 1972.732 1132.112 1967.439 891.768 1802.88 562.543 C 1786.38 529.543 1764.938 485.006 1748.096 448.92 C 1739.676 430.877 1725.661 396.905 1720.508 384.727 C 1720.451 384.593 1768.759 384.929 1769.091 385.395 C 1778.454 406.831 1876.758 614.124 1888.912 643.795 C 1892.635 652.883 1918.027 713.784 1937.368 773.924 C 1954.81 828.157 1966.491 882.056 1968.96 891.425 C 1990.717 973.976 1988.539 1062.411 1979.452 1139.336 C 1970.901 1211.725 1944.414 1267.931 1925.825 1308.147 C 1914.045 1333.633 1875.156 1400.263 1830.155 1445.264 C 1763.243 1513.198 1674.614 1560.605 1581.916 1585.888 C 1493.132 1610.104 1411.133 1615.503 1381.857 1618.214 Z" style=""/>
    <path d="M 1381.903 1618.712 C 1343.601 1622.258 1274.321 1622.089 1208.449 1613.626 C 1139.067 1604.708 1073.6 1587.287 1058.729 1583.697 C 986.752 1564.7 850.792 1506.006 809.249 1484.326 L 809.444 1484.327 C 809.382 1484.327 809.259 1484.315 809.173 1484.287 C 809.165 1484.282 809.157 1484.278 809.15 1484.274 L 809.173 1484.287 C 809.154 1484.28 809.136 1484.273 809.122 1484.265 C 809.041 1484.219 808.93 1484.088 808.899 1484.018 C 808.861 1483.93 808.85 1483.782 808.857 1483.719 C 808.866 1483.636 808.898 1483.515 808.934 1483.413 C 808.999 1483.227 809.118 1482.951 809.273 1482.622 C 809.579 1481.97 810.058 1481.035 810.652 1479.921 C 811.839 1477.695 813.506 1474.723 815.237 1471.769 C 816.968 1468.815 818.771 1465.866 820.229 1463.691 C 820.959 1462.602 821.615 1461.69 822.129 1461.073 C 822.391 1460.76 822.64 1460.497 822.839 1460.331 C 823.065 1460.144 823.453 1460.047 823.734 1460.073 C 1030.535 1537.178 1151.936 1582.73 1351.838 1575.714 C 1429.69 1572.643 1481.451 1564.849 1527.584 1552.604 C 1571.517 1540.943 1622.712 1527.994 1669.943 1499.252 C 1753.89 1449.295 1796.343 1404.805 1838.313 1338.843 C 1972.273 1131.985 1966.987 891.875 1802.433 562.767 C 1785.931 529.763 1764.486 485.22 1747.643 449.131 C 1739.222 431.087 1731.949 415.151 1727.02 403.829 C 1724.555 398.166 1722.672 393.648 1721.526 390.599 C 1720.951 389.07 1720.554 387.888 1720.364 387.119 C 1720.266 386.723 1720.212 386.373 1720.226 386.153 C 1720.236 386.007 1720.321 385.76 1720.442 385.648 C 1720.522 385.574 1720.708 385.497 1720.814 385.492 C 1720.902 385.487 1721.04 385.521 1721.114 385.548 C 1722.604 386.204 1734.211 385.814 1745.704 385.686 C 1751.45 385.622 1757.154 385.618 1761.51 385.836 C 1763.691 385.946 1765.557 386.113 1766.916 386.357 C 1768.297 386.605 1769.32 387.07 1769.64 387.615 C 1778.837 408.707 1877.216 613.921 1889.375 643.605 C 1893.097 652.692 1918.495 713.612 1937.844 773.771 C 1955.292 828.028 1966.977 881.94 1969.444 891.298 C 1991.209 973.918 1989.037 1062.447 1979.949 1139.396 C 1971.375 1211.861 1944.867 1268.142 1926.279 1308.357 C 1914.488 1333.864 1875.55 1400.564 1830.511 1445.615 C 1763.539 1513.594 1674.798 1561.067 1582.048 1586.37 C 1493.214 1610.595 1411.173 1616.001 1381.903 1618.712 Z M 1581.784 1585.406 C 1674.43 1560.143 1762.947 1512.802 1829.799 1444.913 C 1874.76 1399.964 1913.602 1333.402 1925.371 1307.937 C 1943.961 1267.72 1970.427 1211.589 1978.955 1139.278 C 1988.041 1062.376 1990.225 974.034 1968.477 891.552 C 1966.005 882.174 1954.328 828.286 1936.892 774.077 C 1917.557 713.958 1892.173 653.074 1888.449 643.985 C 1876.302 614.327 1777.927 409.123 1768.724 388.015 C 1768.686 387.738 1768.031 387.573 1766.739 387.341 C 1765.424 387.105 1763.621 386.944 1761.46 386.835 C 1757.13 386.618 1751.456 386.622 1745.715 386.686 C 1735.093 386.805 1724.193 387.113 1721.272 386.608 C 1721.288 386.686 1721.309 386.776 1721.335 386.879 C 1721.515 387.608 1721.894 388.735 1722.462 390.247 C 1723.602 393.28 1725.475 397.774 1727.937 403.429 C 1732.862 414.744 1740.13 430.668 1748.55 448.708 C 1765.39 484.791 1786.829 529.323 1803.327 562.319 C 1967.977 891.619 1973.193 1132.245 1839.153 1339.387 C 1797.123 1405.425 1754.51 1450.068 1670.457 1500.11 C 1623.089 1528.908 1571.767 1541.911 1527.84 1553.57 C 1481.653 1565.827 1429.784 1573.637 1351.877 1576.714 C 1151.782 1583.698 1030.24 1538.135 823.525 1461.062 C 823.514 1461.071 823.499 1461.083 823.477 1461.102 C 823.324 1461.228 823.139 1461.424 822.897 1461.714 C 822.406 1462.303 821.781 1463.172 821.06 1464.248 C 819.613 1466.405 817.826 1469.329 816.1 1472.275 C 814.373 1475.22 812.717 1478.175 811.534 1480.391 C 810.944 1481.498 810.477 1482.411 810.178 1483.047 C 810.08 1483.256 810.004 1483.427 809.948 1483.563 C 809.835 1483.504 809.724 1483.446 809.613 1483.388 L 809.522 1483.341 C 809.522 1483.341 809.54 1483.353 809.612 1483.393 C 809.685 1483.434 809.79 1483.558 809.816 1483.618 C 809.845 1483.685 809.854 1483.802 809.852 1483.823 C 809.852 1483.82 809.854 1483.812 809.878 1483.744 C 809.896 1483.692 809.919 1483.632 809.948 1483.563 C 809.948 1483.563 809.948 1483.563 809.948 1483.563 C 851.734 1505.325 987.207 1563.791 1058.979 1582.729 C 1073.871 1586.324 1139.259 1603.728 1208.577 1612.634 C 1274.385 1621.093 1343.557 1621.26 1381.811 1617.716 C 1411.094 1615.005 1493.05 1609.613 1581.784 1585.406 Z" style="fill: none;"/>
    <path d="M 1381.903 1618.712 C 1343.601 1622.258 1274.321 1622.089 1208.449 1613.626 C 1139.067 1604.708 1073.6 1587.287 1058.729 1583.697 C 986.752 1564.7 850.792 1506.006 809.249 1484.326 L 809.444 1484.327 C 809.382 1484.327 809.259 1484.315 809.173 1484.287 C 809.165 1484.282 809.157 1484.278 809.15 1484.274 L 809.173 1484.287 C 809.154 1484.28 809.136 1484.273 809.122 1484.265 C 809.041 1484.219 808.93 1484.088 808.899 1484.018 C 808.861 1483.93 808.85 1483.782 808.857 1483.719 C 808.866 1483.636 808.898 1483.515 808.934 1483.413 C 808.999 1483.227 809.118 1482.951 809.273 1482.622 C 809.579 1481.97 810.058 1481.035 810.652 1479.921 C 811.839 1477.695 813.506 1474.723 815.237 1471.769 C 816.968 1468.815 818.771 1465.866 820.229 1463.691 C 820.959 1462.602 821.615 1461.69 822.129 1461.073 C 822.391 1460.76 822.64 1460.497 822.839 1460.331 C 823.065 1460.144 823.453 1460.047 823.734 1460.073 C 1030.535 1537.178 1151.936 1582.73 1351.838 1575.714 C 1429.69 1572.643 1481.451 1564.849 1527.584 1552.604 C 1571.517 1540.943 1622.712 1527.994 1669.943 1499.252 C 1753.89 1449.295 1796.343 1404.805 1838.313 1338.843 C 1972.273 1131.985 1966.987 891.875 1802.433 562.767 C 1785.931 529.763 1764.486 485.22 1747.643 449.131 C 1739.222 431.087 1731.949 415.151 1727.02 403.829 C 1724.555 398.166 1722.672 393.648 1721.526 390.599 C 1720.951 389.07 1720.554 387.888 1720.364 387.119 C 1720.266 386.723 1720.212 386.373 1720.226 386.153 C 1720.236 386.007 1720.321 385.76 1720.442 385.648 C 1720.522 385.574 1720.708 385.497 1720.814 385.492 C 1720.902 385.487 1721.04 385.521 1721.114 385.548 C 1722.604 386.204 1734.211 385.814 1745.704 385.686 C 1751.45 385.622 1757.154 385.618 1761.51 385.836 C 1763.691 385.946 1765.557 386.113 1766.916 386.357 C 1768.297 386.605 1769.32 387.07 1769.64 387.615 C 1778.837 408.707 1877.216 613.921 1889.375 643.605 C 1893.097 652.692 1918.495 713.612 1937.844 773.771 C 1955.292 828.028 1966.977 881.94 1969.444 891.298 C 1991.209 973.918 1989.037 1062.447 1979.949 1139.396 C 1971.375 1211.861 1944.867 1268.142 1926.279 1308.357 C 1914.488 1333.864 1875.55 1400.564 1830.511 1445.615 C 1763.539 1513.594 1674.798 1561.067 1582.048 1586.37 C 1493.214 1610.595 1411.173 1616.001 1381.903 1618.712 Z M 1581.784 1585.406 C 1674.43 1560.143 1762.947 1512.802 1829.799 1444.913 C 1874.76 1399.964 1913.602 1333.402 1925.371 1307.937 C 1943.961 1267.72 1970.427 1211.589 1978.955 1139.278 C 1988.041 1062.376 1990.225 974.034 1968.477 891.552 C 1966.005 882.174 1954.328 828.286 1936.892 774.077 C 1917.557 713.958 1892.173 653.074 1888.449 643.985 C 1876.302 614.327 1777.927 409.123 1768.724 388.015 C 1768.686 387.738 1768.031 387.573 1766.739 387.341 C 1765.424 387.105 1763.621 386.944 1761.46 386.835 C 1757.13 386.618 1751.456 386.622 1745.715 386.686 C 1735.093 386.805 1724.193 387.113 1721.272 386.608 C 1721.288 386.686 1721.309 386.776 1721.335 386.879 C 1721.515 387.608 1721.894 388.735 1722.462 390.247 C 1723.602 393.28 1725.475 397.774 1727.937 403.429 C 1732.862 414.744 1740.13 430.668 1748.55 448.708 C 1765.39 484.791 1786.829 529.323 1803.327 562.319 C 1967.977 891.619 1973.193 1132.245 1839.153 1339.387 C 1797.123 1405.425 1754.51 1450.068 1670.457 1500.11 C 1623.089 1528.908 1571.767 1541.911 1527.84 1553.57 C 1481.653 1565.827 1429.784 1573.637 1351.877 1576.714 C 1151.782 1583.698 1030.24 1538.135 823.525 1461.062 C 823.514 1461.071 823.499 1461.083 823.477 1461.102 C 823.324 1461.228 823.139 1461.424 822.897 1461.714 C 822.406 1462.303 821.781 1463.172 821.06 1464.248 C 819.613 1466.405 817.826 1469.329 816.1 1472.275 C 814.373 1475.22 812.717 1478.175 811.534 1480.391 C 810.944 1481.498 810.477 1482.411 810.178 1483.047 C 810.08 1483.256 810.004 1483.427 809.948 1483.563 C 809.835 1483.504 809.724 1483.446 809.613 1483.388 L 809.522 1483.341 C 809.522 1483.341 809.54 1483.353 809.612 1483.393 C 809.685 1483.434 809.79 1483.558 809.816 1483.618 C 809.845 1483.685 809.854 1483.802 809.852 1483.823 C 809.852 1483.82 809.854 1483.812 809.878 1483.744 C 809.896 1483.692 809.919 1483.632 809.948 1483.563 C 809.948 1483.563 809.948 1483.563 809.948 1483.563 C 851.734 1505.325 987.207 1563.791 1058.979 1582.729 C 1073.871 1586.324 1139.259 1603.728 1208.577 1612.634 C 1274.385 1621.093 1343.557 1621.26 1381.811 1617.716 C 1411.094 1615.005 1493.05 1609.613 1581.784 1585.406 Z" style="fill: none;"/>
    <path d="M 1381.903 1618.712 C 1343.601 1622.258 1274.321 1622.089 1208.449 1613.626 C 1139.067 1604.708 1073.6 1587.287 1058.729 1583.697 C 986.752 1564.7 850.792 1506.006 809.249 1484.326 L 809.444 1484.327 C 809.382 1484.327 809.259 1484.315 809.173 1484.287 C 809.165 1484.282 809.157 1484.278 809.15 1484.274 L 809.173 1484.287 C 809.154 1484.28 809.136 1484.273 809.122 1484.265 C 809.041 1484.219 808.93 1484.088 808.899 1484.018 C 808.861 1483.93 808.85 1483.782 808.857 1483.719 C 808.866 1483.636 808.898 1483.515 808.934 1483.413 C 808.999 1483.227 809.118 1482.951 809.273 1482.622 C 809.579 1481.97 810.058 1481.035 810.652 1479.921 C 811.839 1477.695 813.506 1474.723 815.237 1471.769 C 816.968 1468.815 818.771 1465.866 820.229 1463.691 C 820.959 1462.602 821.615 1461.69 822.129 1461.073 C 822.391 1460.76 822.64 1460.497 822.839 1460.331 C 823.065 1460.144 823.453 1460.047 823.734 1460.073 C 1030.535 1537.178 1151.936 1582.73 1351.838 1575.714 C 1429.69 1572.643 1481.451 1564.849 1527.584 1552.604 C 1571.517 1540.943 1622.712 1527.994 1669.943 1499.252 C 1753.89 1449.295 1796.343 1404.805 1838.313 1338.843 C 1972.273 1131.985 1966.987 891.875 1802.433 562.767 C 1785.931 529.763 1764.486 485.22 1747.643 449.131 C 1739.222 431.087 1731.949 415.151 1727.02 403.829 C 1724.555 398.166 1722.672 393.648 1721.526 390.599 C 1720.951 389.07 1720.554 387.888 1720.364 387.119 C 1720.266 386.723 1720.212 386.373 1720.226 386.153 C 1720.236 386.007 1720.321 385.76 1720.442 385.648 C 1720.522 385.574 1720.708 385.497 1720.814 385.492 C 1720.902 385.487 1721.04 385.521 1721.114 385.548 C 1722.604 386.204 1734.211 385.814 1745.704 385.686 C 1751.45 385.622 1757.154 385.618 1761.51 385.836 C 1763.691 385.946 1765.557 386.113 1766.916 386.357 C 1768.297 386.605 1769.32 387.07 1769.64 387.615 C 1778.837 408.707 1877.216 613.921 1889.375 643.605 C 1893.097 652.692 1918.495 713.612 1937.844 773.771 C 1955.292 828.028 1966.977 881.94 1969.444 891.298 C 1991.209 973.918 1989.037 1062.447 1979.949 1139.396 C 1971.375 1211.861 1944.867 1268.142 1926.279 1308.357 C 1914.488 1333.864 1875.55 1400.564 1830.511 1445.615 C 1763.539 1513.594 1674.798 1561.067 1582.048 1586.37 C 1493.214 1610.595 1411.173 1616.001 1381.903 1618.712 Z M 1581.784 1585.406 C 1674.43 1560.143 1762.947 1512.802 1829.799 1444.913 C 1874.76 1399.964 1913.602 1333.402 1925.371 1307.937 C 1943.961 1267.72 1970.427 1211.589 1978.955 1139.278 C 1988.041 1062.376 1990.225 974.034 1968.477 891.552 C 1966.005 882.174 1954.328 828.286 1936.892 774.077 C 1917.557 713.958 1892.173 653.074 1888.449 643.985 C 1876.302 614.327 1777.927 409.123 1768.724 388.015 C 1768.686 387.738 1768.031 387.573 1766.739 387.341 C 1765.424 387.105 1763.621 386.944 1761.46 386.835 C 1757.13 386.618 1751.456 386.622 1745.715 386.686 C 1735.093 386.805 1724.193 387.113 1721.272 386.608 C 1721.288 386.686 1721.309 386.776 1721.335 386.879 C 1721.515 387.608 1721.894 388.735 1722.462 390.247 C 1723.602 393.28 1725.475 397.774 1727.937 403.429 C 1732.862 414.744 1740.13 430.668 1748.55 448.708 C 1765.39 484.791 1786.829 529.323 1803.327 562.319 C 1967.977 891.619 1973.193 1132.245 1839.153 1339.387 C 1797.123 1405.425 1754.51 1450.068 1670.457 1500.11 C 1623.089 1528.908 1571.767 1541.911 1527.84 1553.57 C 1481.653 1565.827 1429.784 1573.637 1351.877 1576.714 C 1151.782 1583.698 1030.24 1538.135 823.525 1461.062 C 823.514 1461.071 823.499 1461.083 823.477 1461.102 C 823.324 1461.228 823.139 1461.424 822.897 1461.714 C 822.406 1462.303 821.781 1463.172 821.06 1464.248 C 819.613 1466.405 817.826 1469.329 816.1 1472.275 C 814.373 1475.22 812.717 1478.175 811.534 1480.391 C 810.944 1481.498 810.477 1482.411 810.178 1483.047 C 810.08 1483.256 810.004 1483.427 809.948 1483.563 C 809.835 1483.504 809.724 1483.446 809.613 1483.388 L 809.522 1483.341 C 809.522 1483.341 809.54 1483.353 809.612 1483.393 C 809.685 1483.434 809.79 1483.558 809.816 1483.618 C 809.845 1483.685 809.854 1483.802 809.852 1483.823 C 809.852 1483.82 809.854 1483.812 809.878 1483.744 C 809.896 1483.692 809.919 1483.632 809.948 1483.563 C 809.948 1483.563 809.948 1483.563 809.948 1483.563 C 851.734 1505.325 987.207 1563.791 1058.979 1582.729 C 1073.871 1586.324 1139.259 1603.728 1208.577 1612.634 C 1274.385 1621.093 1343.557 1621.26 1381.811 1617.716 C 1411.094 1615.005 1493.05 1609.613 1581.784 1585.406 Z" style="fill: none;"/>
    <path d="M 1381.903 1618.712 C 1343.601 1622.258 1274.321 1622.089 1208.449 1613.626 C 1139.067 1604.708 1073.6 1587.287 1058.729 1583.697 C 986.752 1564.7 850.792 1506.006 809.249 1484.326 L 809.444 1484.327 C 809.382 1484.327 809.259 1484.315 809.173 1484.287 C 809.165 1484.282 809.157 1484.278 809.15 1484.274 L 809.173 1484.287 C 809.154 1484.28 809.136 1484.273 809.122 1484.265 C 809.041 1484.219 808.93 1484.088 808.899 1484.018 C 808.861 1483.93 808.85 1483.782 808.857 1483.719 C 808.866 1483.636 808.898 1483.515 808.934 1483.413 C 808.999 1483.227 809.118 1482.951 809.273 1482.622 C 809.579 1481.97 810.058 1481.035 810.652 1479.921 C 811.839 1477.695 813.506 1474.723 815.237 1471.769 C 816.968 1468.815 818.771 1465.866 820.229 1463.691 C 820.959 1462.602 821.615 1461.69 822.129 1461.073 C 822.391 1460.76 822.64 1460.497 822.839 1460.331 C 823.065 1460.144 823.453 1460.047 823.734 1460.073 C 1030.535 1537.178 1151.936 1582.73 1351.838 1575.714 C 1429.69 1572.643 1481.451 1564.849 1527.584 1552.604 C 1571.517 1540.943 1622.712 1527.994 1669.943 1499.252 C 1753.89 1449.295 1796.343 1404.805 1838.313 1338.843 C 1972.273 1131.985 1966.987 891.875 1802.433 562.767 C 1785.931 529.763 1764.486 485.22 1747.643 449.131 C 1739.222 431.087 1731.949 415.151 1727.02 403.829 C 1724.555 398.166 1722.672 393.648 1721.526 390.599 C 1720.951 389.07 1720.554 387.888 1720.364 387.119 C 1720.266 386.723 1720.212 386.373 1720.226 386.153 C 1720.236 386.007 1720.321 385.76 1720.442 385.648 C 1720.522 385.574 1720.708 385.497 1720.814 385.492 C 1720.902 385.487 1721.04 385.521 1721.114 385.548 C 1722.604 386.204 1734.211 385.814 1745.704 385.686 C 1751.45 385.622 1757.154 385.618 1761.51 385.836 C 1763.691 385.946 1765.557 386.113 1766.916 386.357 C 1768.297 386.605 1769.32 387.07 1769.64 387.615 C 1778.837 408.707 1877.216 613.921 1889.375 643.605 C 1893.097 652.692 1918.495 713.612 1937.844 773.771 C 1955.292 828.028 1966.977 881.94 1969.444 891.298 C 1991.209 973.918 1989.037 1062.447 1979.949 1139.396 C 1971.375 1211.861 1944.867 1268.142 1926.279 1308.357 C 1914.488 1333.864 1875.55 1400.564 1830.511 1445.615 C 1763.539 1513.594 1674.798 1561.067 1582.048 1586.37 C 1493.214 1610.595 1411.173 1616.001 1381.903 1618.712 Z M 1581.784 1585.406 C 1674.43 1560.143 1762.947 1512.802 1829.799 1444.913 C 1874.76 1399.964 1913.602 1333.402 1925.371 1307.937 C 1943.961 1267.72 1970.427 1211.589 1978.955 1139.278 C 1988.041 1062.376 1990.225 974.034 1968.477 891.552 C 1966.005 882.174 1954.328 828.286 1936.892 774.077 C 1917.557 713.958 1892.173 653.074 1888.449 643.985 C 1876.302 614.327 1777.927 409.123 1768.724 388.015 C 1768.686 387.738 1768.031 387.573 1766.739 387.341 C 1765.424 387.105 1763.621 386.944 1761.46 386.835 C 1757.13 386.618 1751.456 386.622 1745.715 386.686 C 1735.093 386.805 1724.193 387.113 1721.272 386.608 C 1721.288 386.686 1721.309 386.776 1721.335 386.879 C 1721.515 387.608 1721.894 388.735 1722.462 390.247 C 1723.602 393.28 1725.475 397.774 1727.937 403.429 C 1732.862 414.744 1740.13 430.668 1748.55 448.708 C 1765.39 484.791 1786.829 529.323 1803.327 562.319 C 1967.977 891.619 1973.193 1132.245 1839.153 1339.387 C 1797.123 1405.425 1754.51 1450.068 1670.457 1500.11 C 1623.089 1528.908 1571.767 1541.911 1527.84 1553.57 C 1481.653 1565.827 1429.784 1573.637 1351.877 1576.714 C 1151.782 1583.698 1030.24 1538.135 823.525 1461.062 C 823.514 1461.071 823.499 1461.083 823.477 1461.102 C 823.324 1461.228 823.139 1461.424 822.897 1461.714 C 822.406 1462.303 821.781 1463.172 821.06 1464.248 C 819.613 1466.405 817.826 1469.329 816.1 1472.275 C 814.373 1475.22 812.717 1478.175 811.534 1480.391 C 810.944 1481.498 810.477 1482.411 810.178 1483.047 C 810.08 1483.256 810.004 1483.427 809.948 1483.563 C 809.835 1483.504 809.724 1483.446 809.613 1483.388 L 809.522 1483.341 C 809.522 1483.341 809.54 1483.353 809.612 1483.393 C 809.685 1483.434 809.79 1483.558 809.816 1483.618 C 809.845 1483.685 809.854 1483.802 809.852 1483.823 C 809.852 1483.82 809.854 1483.812 809.878 1483.744 C 809.896 1483.692 809.919 1483.632 809.948 1483.563 C 809.948 1483.563 809.948 1483.563 809.948 1483.563 C 851.734 1505.325 987.207 1563.791 1058.979 1582.729 C 1073.871 1586.324 1139.259 1603.728 1208.577 1612.634 C 1274.385 1621.093 1343.557 1621.26 1381.811 1617.716 C 1411.094 1615.005 1493.05 1609.613 1581.784 1585.406 Z" style="fill: none;"/>
    <path d="M 1381.903 1618.712 C 1343.601 1622.258 1274.321 1622.089 1208.449 1613.626 C 1139.067 1604.708 1073.6 1587.287 1058.729 1583.697 C 986.752 1564.7 850.792 1506.006 809.249 1484.326 L 809.444 1484.327 C 809.382 1484.327 809.259 1484.315 809.173 1484.287 C 809.165 1484.282 809.157 1484.278 809.15 1484.274 L 809.173 1484.287 C 809.154 1484.28 809.136 1484.273 809.122 1484.265 C 809.041 1484.219 808.93 1484.088 808.899 1484.018 C 808.861 1483.93 808.85 1483.782 808.857 1483.719 C 808.866 1483.636 808.898 1483.515 808.934 1483.413 C 808.999 1483.227 809.118 1482.951 809.273 1482.622 C 809.579 1481.97 810.058 1481.035 810.652 1479.921 C 811.839 1477.695 813.506 1474.723 815.237 1471.769 C 816.968 1468.815 818.771 1465.866 820.229 1463.691 C 820.959 1462.602 821.615 1461.69 822.129 1461.073 C 822.391 1460.76 822.64 1460.497 822.839 1460.331 C 823.065 1460.144 823.453 1460.047 823.734 1460.073 C 1030.535 1537.178 1151.936 1582.73 1351.838 1575.714 C 1429.69 1572.643 1481.451 1564.849 1527.584 1552.604 C 1571.517 1540.943 1622.712 1527.994 1669.943 1499.252 C 1753.89 1449.295 1796.343 1404.805 1838.313 1338.843 C 1972.273 1131.985 1966.987 891.875 1802.433 562.767 C 1785.931 529.763 1764.486 485.22 1747.643 449.131 C 1739.222 431.087 1731.949 415.151 1727.02 403.829 C 1724.555 398.166 1722.672 393.648 1721.526 390.599 C 1720.951 389.07 1720.554 387.888 1720.364 387.119 C 1720.266 386.723 1720.212 386.373 1720.226 386.153 C 1720.236 386.007 1720.321 385.76 1720.442 385.648 C 1720.522 385.574 1720.708 385.497 1720.814 385.492 C 1720.902 385.487 1721.04 385.521 1721.114 385.548 C 1722.604 386.204 1734.211 385.814 1745.704 385.686 C 1751.45 385.622 1757.154 385.618 1761.51 385.836 C 1763.691 385.946 1765.557 386.113 1766.916 386.357 C 1768.297 386.605 1769.32 387.07 1769.64 387.615 C 1778.837 408.707 1877.216 613.921 1889.375 643.605 C 1893.097 652.692 1918.495 713.612 1937.844 773.771 C 1955.292 828.028 1966.977 881.94 1969.444 891.298 C 1991.209 973.918 1989.037 1062.447 1979.949 1139.396 C 1971.375 1211.861 1944.867 1268.142 1926.279 1308.357 C 1914.488 1333.864 1875.55 1400.564 1830.511 1445.615 C 1763.539 1513.594 1674.798 1561.067 1582.048 1586.37 C 1493.214 1610.595 1411.173 1616.001 1381.903 1618.712 Z M 1581.784 1585.406 C 1674.43 1560.143 1762.947 1512.802 1829.799 1444.913 C 1874.76 1399.964 1913.602 1333.402 1925.371 1307.937 C 1943.961 1267.72 1970.427 1211.589 1978.955 1139.278 C 1988.041 1062.376 1990.225 974.034 1968.477 891.552 C 1966.005 882.174 1954.328 828.286 1936.892 774.077 C 1917.557 713.958 1892.173 653.074 1888.449 643.985 C 1876.302 614.327 1777.927 409.123 1768.724 388.015 C 1768.686 387.738 1768.031 387.573 1766.739 387.341 C 1765.424 387.105 1763.621 386.944 1761.46 386.835 C 1757.13 386.618 1751.456 386.622 1745.715 386.686 C 1735.093 386.805 1724.193 387.113 1721.272 386.608 C 1721.288 386.686 1721.309 386.776 1721.335 386.879 C 1721.515 387.608 1721.894 388.735 1722.462 390.247 C 1723.602 393.28 1725.475 397.774 1727.937 403.429 C 1732.862 414.744 1740.13 430.668 1748.55 448.708 C 1765.39 484.791 1786.829 529.323 1803.327 562.319 C 1967.977 891.619 1973.193 1132.245 1839.153 1339.387 C 1797.123 1405.425 1754.51 1450.068 1670.457 1500.11 C 1623.089 1528.908 1571.767 1541.911 1527.84 1553.57 C 1481.653 1565.827 1429.784 1573.637 1351.877 1576.714 C 1151.782 1583.698 1030.24 1538.135 823.525 1461.062 C 823.514 1461.071 823.499 1461.083 823.477 1461.102 C 823.324 1461.228 823.139 1461.424 822.897 1461.714 C 822.406 1462.303 821.781 1463.172 821.06 1464.248 C 819.613 1466.405 817.826 1469.329 816.1 1472.275 C 814.373 1475.22 812.717 1478.175 811.534 1480.391 C 810.944 1481.498 810.477 1482.411 810.178 1483.047 C 810.08 1483.256 810.004 1483.427 809.948 1483.563 C 809.835 1483.504 809.724 1483.446 809.613 1483.388 L 809.522 1483.341 C 809.522 1483.341 809.54 1483.353 809.612 1483.393 C 809.685 1483.434 809.79 1483.558 809.816 1483.618 C 809.845 1483.685 809.854 1483.802 809.852 1483.823 C 809.852 1483.82 809.854 1483.812 809.878 1483.744 C 809.896 1483.692 809.919 1483.632 809.948 1483.563 C 809.948 1483.563 809.948 1483.563 809.948 1483.563 C 851.734 1505.325 987.207 1563.791 1058.979 1582.729 C 1073.871 1586.324 1139.259 1603.728 1208.577 1612.634 C 1274.385 1621.093 1343.557 1621.26 1381.811 1617.716 C 1411.094 1615.005 1493.05 1609.613 1581.784 1585.406 Z" style="fill: none;"/>
    <path d="M 1202.715 1540.209 C 1144.625 1536.199 1066.052 1518.262 1024.951 1507.241 C 935.72 1483.146 826.81 1431.858 826.962 1431.584 C 828.486 1428.834 841.557 1405.039 842.016 1405.211 C 901.232 1427.473 899.103 1426.455 910.092 1431.457 C 1002.818 1473.724 1237.911 1521.244 1403.569 1497.234 C 1567.15 1473.398 1726.32 1364.797 1786.974 1231.209 C 1821.902 1154.435 1840.857 1055.026 1840.857 986.214 C 1840.857 894.448 1800.953 728.812 1743.997 586.95 C 1723.007 533.976 1708.302 499.575 1697.089 478.4 C 1685.985 457.385 1679.137 450.214 1672.857 450.214 C 1666.339 450.214 1662.269 452.374 1658.716 458.71 C 1654.959 465.219 1652.31 475.64 1649.829 491.546 C 1631.747 598.806 1524.501 826.314 1454.331 902.565 C 1345.011 1021.798 1198.301 1089.122 1026.937 1098.212 L 924.081 1102.286 L 916.871 1039.446 C 912.375 1001.482 908.917 978.949 904.594 966.624 C 902.499 960.595 900.503 957.466 897.985 955.982 C 895.656 954.454 893.291 954.639 889.594 956.073 C 886.554 957.222 884.433 960.533 883.043 965.969 C 881.586 971.503 881.354 978.656 882.839 986.948 C 885.726 1009.559 879.295 1021.525 859.063 1038.808 C 840.474 1052.869 828.433 1059.926 821.148 1058.811 C 817.224 1058.028 814.251 1054.687 812.765 1049.725 C 811.389 1044.946 810.857 1038.04 810.857 1029.214 C 810.857 1008.11 802.431 988.555 789.008 973.939 C 775.64 959.3 757.901 950.214 738.857 950.214 C 722.126 950.214 697.664 957.022 685.995 965.858 C 679.469 970.376 674.364 973.664 670.782 975.235 C 668.903 976.046 667.007 976.477 665.656 976.319 C 664.88 976.184 663.895 975.707 663.327 975.173 C 662.821 974.623 662.346 973.691 662.155 972.898 C 661.115 967.849 665.995 954.485 676.005 930.458 C 683.968 910.563 688.802 894.35 687.31 891.508 C 687.136 891.489 682.25 892.599 679.745 893.586 C 674.671 895.576 667.918 898.959 659.833 903.476 C 643.631 912.526 622.455 925.948 599.983 941.243 C 555.025 971.837 505.172 1009.721 480.271 1034.628 C 442.422 1072.461 422.629 1104.125 402.717 1156.948 C 388.747 1192.364 379.807 1222.657 376.331 1244.159 C 374.596 1254.856 374.228 1263.109 375.263 1268.78 C 375.751 1271.537 376.439 1273.335 377.52 1274.615 C 378.481 1275.856 379.298 1276.214 380.857 1276.214 C 385.206 1276.214 398.477 1264.767 412.409 1250.834 C 450.799 1208.569 515.453 1184.28 606.749 1179.216 C 717.531 1173.253 723.951 1171.477 771.584 1131.672 C 794.787 1112.542 846.853 1087.492 861.695 1076.586 L 892.059 1054.898 L 898.806 1080.766 C 901.829 1094.063 899.813 1121.557 893.779 1141.769 C 885.568 1171.153 871.133 1187.724 826.917 1215.91 L 770.281 1251.307 L 769.542 1251.188 L 700.508 1240.184 C 632.957 1228.16 578.753 1243.718 502.743 1263.721 C 482.009 1269.6 403.399 1320.214 377.857 1320.214 C 371.516 1320.214 360.983 1316.308 352.418 1305.174 C 344.086 1294.179 337.164 1275.562 337.164 1246.214 C 337.164 1192.057 349.941 1154.655 366.869 1119.409 C 384.231 1083.291 406.491 1048.996 449.635 1004.81 C 535.765 916.698 625.815 851.771 672.506 844.083 C 691.036 841.075 818.965 827.468 830.555 817.696 C 838.38 810.887 843.228 803.815 845.413 795.747 C 847.65 787.694 847.085 779.112 843.592 769.12 C 836.595 748.91 817.863 724.538 786.458 693.643 C 725.972 634.698 579.745 593.683 482.433 588.46 C 454.051 586.924 385.08 589.649 385.082 589.43 C 385.178 579.524 384.898 545.734 385.263 545.717 C 440.791 543.159 437.342 544.225 481.266 542.52 C 481.279 541.448 481.385 510.162 481.559 506.3 C 481.277 506.293 382.979 507.678 383.02 507.295 C 383.6 501.87 381.911 457.137 382.397 456.439 C 383.16 455.874 466.11 454.373 479.448 454.265 C 479.488 453.212 478.73 420.336 478.717 416.537 C 478.128 416.526 392.669 415.057 381.953 415.64 C 381.239 415.679 380.879 393.308 381.226 382.676 C 381.236 382.378 857.464 381.928 857.464 381.928 C 857.464 381.928 854.228 484.75 876.729 576.325 C 897.345 660.617 943.243 730.863 979.29 748.735 C 1013.489 766.139 1057.813 772.922 1097.691 769.331 C 1137.525 765.779 1172.107 752.178 1187.141 728.093 C 1194.079 716.195 1218.686 658.141 1220.131 636.205 C 1219.935 636.108 1001.182 635.477 1001.182 635.477 L 1001.361 588.851 C 1001.361 588.851 1060.787 588.504 1106.815 588.012 C 1106.811 587.141 1106.53 552.198 1106.71 546.099 C 1106.64 546.092 1107.103 546.141 1106.479 546.074 C 1104.677 545.875 1051.594 546.236 999.258 546.158 C 999.258 546.158 998.614 484.45 998.992 484.317 C 998.992 484.317 1102.763 484.201 1103.175 484.186 C 1103.252 481.544 1102.255 448.952 1102.183 447.956 C 1073.313 447.272 1000.953 448.701 1000.931 448.257 C 1000.64 442.413 1001.315 382.01 1001.318 381.941 C 1001.318 381.941 1173.919 382.29 1344.646 382.599 C 1430.009 382.753 1515.406 382.97 1579.524 383.274 C 1611.584 383.426 1638.328 383.599 1657.087 383.797 C 1666.468 383.896 1673.861 384.001 1678.922 384.112 C 1681.457 384.168 1683.423 384.227 1684.758 384.287 C 1685.435 384.316 1685.984 384.35 1686.353 384.382 C 1686.925 384.471 1687.76 384.872 1688.218 385.225 L 1688.372 385.342 L 1688.464 385.48 C 1700.94 404.135 1739.448 489.392 1768.784 554.423 C 1808.739 643.02 1846.982 751.817 1859.748 796.631 C 1886.837 891.725 1886.562 916.695 1888.857 1013.236 C 1891.027 1104.518 1876.352 1139.486 1854.352 1206.485 C 1830.204 1279.77 1784.382 1341.402 1741.302 1386.496 C 1704.084 1424.666 1574.733 1498.743 1515.528 1516.833 C 1438.339 1540.871 1343.899 1551.205 1202.715 1540.209 Z" style="transform-box: fill-box; transform-origin: 50% 50%;"/>
    <path d="M 1177.776 1472.211 C 1091.698 1465.198 1007.886 1444.854 943.822 1419.834 C 901.628 1403.298 882.159 1391.598 853.841 1377.399 C 853.587 1377.035 871.803 1346.33 872.225 1345.577 C 872.225 1345.577 923.201 1367.775 954.175 1378.266 C 1096.102 1425.248 1177.908 1439.222 1269.786 1432.217 C 1423.662 1421.241 1545.823 1380.135 1628.631 1298.253 C 1711.49 1218.503 1748.871 1053.146 1730.861 873.307 C 1724.865 808.835 1715.623 747.643 1706.004 702.548 C 1701.197 680.009 1681.399 629.214 1679.857 629.214 C 1678.452 629.214 1657.773 674.647 1652.274 690.642 C 1611.213 819.763 1564.624 888.848 1476.561 975.924 C 1405.929 1046.009 1339.349 1088.084 1262.135 1116.802 C 1193.79 1142.205 1117.409 1157.977 1015.905 1162.213 C 972.846 1164.533 926.748 1159.22 926.466 1158.852 C 926.217 1158.527 929.324 1129.159 929.932 1128.284 C 930.574 1127.362 963.608 1128.345 987.601 1128.345 C 1076.743 1128.345 1167.069 1115.329 1249.64 1082.129 C 1365.174 1035.72 1463.751 957.893 1523.703 865.882 C 1577.682 781.917 1619.937 702.835 1652.899 592.927 L 1680.673 500.348 L 1706.772 558.811 C 1732.303 616.734 1753.637 692.521 1766.706 779.304 C 1774.641 832.012 1779.515 888.787 1786.315 948.1 C 1790.105 981.246 1785.037 1020.094 1779.303 1060.337 C 1771.697 1113.71 1760.923 1169.866 1737.953 1218.925 C 1726.196 1244.011 1697.952 1292.89 1658.949 1330.707 C 1615.39 1372.887 1560.408 1403.365 1541.311 1413.105 C 1430.806 1469.436 1328.895 1485.207 1177.776 1472.211 Z"/>
    <path d="M 1414.134 1383.175 C 1380.086 1392.971 1279.696 1405.462 1186.928 1399.019 C 1099.442 1392.92 1018.93 1368.355 998.281 1361.677 C 966.626 1351.441 881.857 1313.262 881.857 1310.214 C 881.857 1307.51 898.588 1276.448 898.856 1276.227 C 899.176 1275.962 1048.446 1331.372 1095.132 1340.781 C 1152.385 1352.342 1213.745 1352.973 1248.984 1352.973 C 1271.882 1352.973 1315.328 1354.283 1360.341 1346.118 C 1405.832 1337.885 1452.89 1320.123 1481.984 1305.071 C 1503.967 1293.824 1541.378 1273.022 1569.202 1244.937 C 1595.78 1218.168 1612.904 1184.432 1629.533 1158.018 C 1645.725 1132.712 1655.118 1086.778 1661.881 1036.838 C 1667.6 994.627 1671.857 949.724 1671.857 912.214 C 1671.857 885.237 1671.114 869.378 1668.52 860.237 C 1667.244 855.74 1665.64 853.091 1663.4 851.422 C 1661.178 849.767 1658.505 849.214 1654.857 849.214 C 1653.174 849.214 1650.174 852.717 1645.531 859.35 C 1640.87 866.007 1634.946 875.459 1627.838 886.636 C 1613.625 908.988 1594.699 938.199 1571.841 965.492 C 1534.27 1010.333 1486.664 1051.699 1456.428 1076.52 C 1346.251 1164.611 1211.455 1199.171 1048.586 1211.646 C 1028.999 1213.142 920.102 1208.435 919.838 1208.107 C 919.591 1207.801 923.262 1184.696 923.698 1184.083 C 924.164 1183.429 969.176 1189.555 1041.084 1185.552 C 1172.999 1177.564 1225.517 1165.161 1324.418 1118.196 C 1470.262 1051.308 1591.738 920.701 1644.629 767.88 C 1658.631 728.375 1675.233 697.253 1676.462 696.95 C 1676.821 696.862 1683.436 724.445 1690.159 761.276 C 1696.093 793.781 1702.039 833.701 1704.853 865.12 C 1719.351 1011.235 1704.57 1123.791 1657.229 1208.203 C 1609.874 1292.641 1529.781 1349.104 1414.134 1383.175 Z"/>
    <path d="M 444.199 1172.461 C 476.378 1144.361 562.642 1117.241 648.74 1108.221 C 682.674 1104.233 717.386 1095.345 726.228 1088.437 C 735.603 1080.595 740.623 1070.452 741.359 1060.019 C 742.096 1049.591 738.496 1039.267 730.15 1030.921 C 716.874 1017.645 694.706 1015.476 659.633 1025.55 C 624.46 1035.653 576.817 1058.101 513.351 1094.083 C 477.341 1114.589 457.215 1125.406 449.342 1127.311 C 448.318 1127.559 447.387 1127.673 446.698 1127.625 C 445.938 1127.573 445.11 1127.204 444.729 1126.69 C 444.35 1126.179 444.233 1125.294 444.377 1124.559 C 444.508 1123.887 444.845 1123.034 445.315 1122.14 C 447.14 1118.666 451.606 1113.054 458.12 1105.538 C 480.269 1081.427 636.51 1005.281 702.598 987.248 C 723.121 981.742 734.837 979.197 743.394 980.602 C 752.057 982.024 757.606 987.555 765.643 997.596 C 776.71 1011.709 782.604 1025.509 782.857 1040.197 C 783.11 1054.865 777.76 1070.627 766.719 1088.721 C 744.459 1127.944 712.072 1140.181 612.942 1149.21 C 566 1153.202 503.139 1166.171 473.208 1177.151 L 413.107 1200.098 L 417.193 1196.467 L 444.199 1172.461 Z"/>
    <path d="M 672.857 1064.214 C 672.857 1055.214 679.857 1048.214 688.857 1048.214 C 705.857 1048.214 702.857 1070.214 684.857 1076.214 C 677.857 1078.214 672.857 1073.214 672.857 1064.214 Z"/>
  </g>
</svg>